<svg width="22" height="22" viewBox="0 0 22 22" fill="none" xmlns="http://www.w3.org/2000/svg">
<path d="M6.78912 4.00115C7.32952 3.99112 7.86916 4.04652 8.39625 4.16616C8.84003 4.26305 9.26138 4.44335 9.63789 4.69747C9.98562 4.95016 10.2608 5.28988 10.4357 5.68253C10.6367 6.16536 10.7337 6.68515 10.7203 7.20798C10.7431 7.78206 10.5965 8.35017 10.2987 8.84151C9.98544 9.30556 9.5524 9.67617 9.04553 9.91403C9.73338 10.0995 10.3325 10.5242 10.7352 11.1119C11.1217 11.7347 11.316 12.4576 11.2937 13.1902C11.3064 13.7743 11.1857 14.3536 10.9406 14.8839C10.714 15.3466 10.3823 15.7497 9.97202 16.0612C9.54958 16.3692 9.0742 16.5971 8.5695 16.7336C8.04611 16.8784 7.50542 16.9511 6.96237 16.9497H1V4.00115H6.78912ZM6.44509 9.23834C6.86969 9.25584 7.28766 9.12873 7.63063 8.87781C7.79489 8.73158 7.92266 8.54896 8.00374 8.34454C8.08482 8.14012 8.11696 7.91957 8.09759 7.70051C8.10858 7.44467 8.05764 7.18994 7.94909 6.958C7.85701 6.77333 7.71383 6.61899 7.53658 6.51332C7.35705 6.39701 7.15535 6.31919 6.94422 6.28479C6.71514 6.24041 6.48203 6.22023 6.24874 6.22457H3.70109V9.24989H6.44509V9.23834ZM6.59359 14.7511C6.85037 14.7546 7.10662 14.7269 7.35673 14.6686C7.58529 14.6181 7.80205 14.5243 7.99529 14.3922C8.1846 14.2602 8.33754 14.0826 8.43997 13.8757C8.55874 13.612 8.61331 13.3239 8.5992 13.0351C8.62495 12.7718 8.59008 12.5062 8.49727 12.2585C8.40446 12.0108 8.25617 11.7876 8.06377 11.6061C7.65596 11.3058 7.1562 11.157 6.65052 11.1854H3.70109V14.7511H6.59359Z" fill="white"/>
<path d="M15.1407 14.7028C15.3527 14.8993 15.6025 15.0507 15.8748 15.1477C16.1471 15.2447 16.4362 15.2853 16.7247 15.2671C17.1821 15.2787 17.6305 15.1395 18.001 14.8711C18.3024 14.6751 18.5307 14.3851 18.6503 14.0461H20.8044C20.5749 15.0112 20.0144 15.8654 19.2204 16.4601C18.4587 16.9657 17.5585 17.2217 16.6447 17.1927C15.9925 17.2012 15.3453 17.0786 14.7414 16.8322C14.1951 16.6043 13.7052 16.26 13.3059 15.8232C12.908 15.3654 12.6024 14.8351 12.4058 14.2614C12.1851 13.6201 12.0771 12.9455 12.0865 12.2674C12.0825 11.6006 12.1941 10.9382 12.4165 10.3096C12.7153 9.42528 13.2865 8.65833 14.0482 8.11881C14.8099 7.57929 15.7229 7.29493 16.6563 7.30655C17.3453 7.29215 18.0268 7.45341 18.6363 7.77516C19.1873 8.07728 19.6626 8.50039 20.0264 9.01268C20.3987 9.55022 20.6655 10.1535 20.8127 10.7906C20.9741 11.4747 21.0317 12.1791 20.9835 12.8803H14.5673C14.5153 13.5391 14.7209 14.1924 15.1407 14.7028V14.7028ZM17.9557 9.77829C17.7761 9.5987 17.5602 9.45968 17.3224 9.37059C17.0845 9.2815 16.8304 9.24442 16.5771 9.26183C16.2409 9.24901 15.9073 9.32348 15.6085 9.47799C15.3716 9.60838 15.1626 9.78382 14.993 9.99444C14.8428 10.1919 14.7309 10.4158 14.663 10.6545C14.6019 10.8535 14.5637 11.0589 14.5492 11.2666H18.5233C18.4886 10.7251 18.2914 10.2067 17.9573 9.77912L17.9557 9.77829Z" fill="white"/>
<path d="M19.0169 4.86523H14.0371V6.13823H19.0169V4.86523Z" fill="white"/>
</svg>
