<svg width="73" height="72" viewBox="0 0 73 72" fill="none" xmlns="http://www.w3.org/2000/svg">
<g clip-path="url(#clip0_2_960)">
<path d="M36.565 70.5599C55.5005 70.5599 70.8507 55.0869 70.8507 35.9999C70.8507 16.913 55.5005 1.43994 36.565 1.43994C17.6295 1.43994 2.2793 16.913 2.2793 35.9999C2.2793 55.0869 17.6295 70.5599 36.565 70.5599Z" fill="#EA4C89"/>
<path fill-rule="evenodd" clip-rule="evenodd" d="M36.5658 0C16.8494 0 0.851562 16.1258 0.851562 36C0.851562 55.8742 16.8494 72 36.5658 72C56.2436 72 72.2801 55.8742 72.2801 36C72.2801 16.1258 56.2436 0 36.5658 0ZM60.1558 16.5943C64.4168 21.8264 66.9734 28.5033 67.0508 35.7267C66.0437 35.5314 55.9724 33.4621 45.8237 34.7505C45.5913 34.243 45.3976 33.6963 45.1652 33.1497C44.5454 31.666 43.8481 30.1432 43.1509 28.6985C54.3843 24.0911 59.4973 17.4534 60.1558 16.5943ZM36.5658 5.31019C44.313 5.31019 51.4016 8.2386 56.7858 13.0412C56.2436 13.8221 51.634 20.0304 40.7881 24.1302C35.7911 14.8764 30.2519 7.30152 29.3998 6.13015C31.6851 5.58351 34.0868 5.31019 36.5658 5.31019ZM23.5894 8.19958C24.4028 9.29282 29.8258 16.9068 34.9002 25.9653C20.6455 29.7917 8.05642 29.7137 6.70065 29.7137C8.67613 20.1866 15.0676 12.2603 23.5894 8.19958ZM6.04214 36.039C6.04214 35.7267 6.04214 35.4144 6.04214 35.1019C7.35916 35.141 22.1562 35.3362 37.3793 30.7289C38.2702 32.4469 39.0836 34.2039 39.8583 35.961C39.471 36.0781 39.0449 36.1953 38.6576 36.3123C22.9309 41.4274 14.564 55.4057 13.8668 56.577C9.02478 51.1497 6.04214 43.9263 6.04214 36.039ZM36.5658 66.7679C29.516 66.7679 23.0083 64.3471 17.8565 60.2863C18.3988 59.1541 24.5966 47.128 41.7951 41.0759C41.8726 41.0369 41.9114 41.0369 41.9888 40.9978C46.2885 52.2039 48.0316 61.6139 48.4964 64.308C44.8166 65.9089 40.7881 66.7679 36.5658 66.7679ZM53.5709 61.4968C53.2609 59.6226 51.6341 50.6421 47.6443 39.5922C57.212 38.0694 65.5788 40.5683 66.6247 40.9198C65.3077 49.4707 60.427 56.8503 53.5709 61.4968Z" fill="#C32361"/>
</g>
<defs>
<clipPath id="clip0_2_960">
<rect width="71.4286" height="72" fill="white" transform="translate(0.851562)"/>
</clipPath>
</defs>
</svg>
