<svg width="22" height="22" viewBox="0 0 22 22" fill="none" xmlns="http://www.w3.org/2000/svg">
<path fill-rule="evenodd" clip-rule="evenodd" d="M11 1C5.4794 1 1 5.4794 1 11C1 16.5206 5.4794 21 11 21C16.5098 21 21 16.5206 21 11C21 5.4794 16.5098 1 11 1ZM17.6052 5.60954C18.7983 7.0629 19.5141 8.91758 19.5358 10.9241C19.2538 10.8698 16.4338 10.295 13.5922 10.6529C13.5271 10.5119 13.4729 10.3601 13.4078 10.2082C13.2343 9.7961 13.039 9.3731 12.8438 8.9718C15.9892 7.69198 17.4208 5.84816 17.6052 5.60954ZM11 2.47505C13.1692 2.47505 15.154 3.2885 16.6616 4.62256C16.5098 4.83948 15.2191 6.564 12.1822 7.70282C10.7831 5.13232 9.2321 3.0282 8.9935 2.70282C9.6334 2.55098 10.3059 2.47505 11 2.47505ZM7.3666 3.27766C7.59436 3.58134 9.1128 5.69632 10.5336 8.21258C6.5423 9.27548 3.01736 9.2538 2.63774 9.2538C3.19088 6.60738 4.98048 4.40564 7.3666 3.27766ZM2.45336 11.0108C2.45336 10.9241 2.45336 10.8373 2.45336 10.7505C2.82213 10.7614 6.9653 10.8156 11.2278 9.5358C11.4772 10.013 11.705 10.5011 11.9219 10.9892C11.8134 11.0217 11.6941 11.0542 11.5857 11.0868C7.18222 12.5076 4.83948 16.3905 4.64426 16.7158C3.2885 15.2082 2.45336 13.2017 2.45336 11.0108ZM11 19.5466C9.02604 19.5466 7.2039 18.8742 5.76138 17.7462C5.91324 17.4317 7.6486 14.0911 12.4642 12.41C12.4859 12.3991 12.4967 12.3991 12.5184 12.3883C13.7223 15.5011 14.2104 18.115 14.3406 18.8633C13.3102 19.308 12.1822 19.5466 11 19.5466ZM15.7614 18.0824C15.6746 17.5618 15.2191 15.0672 14.102 11.9978C16.7809 11.5748 19.1236 12.269 19.4165 12.3666C19.0477 14.7419 17.6811 16.7918 15.7614 18.0824Z" fill="white"/>
</svg>
