<svg width="22" height="22" viewBox="0 0 22 22" fill="none" xmlns="http://www.w3.org/2000/svg">
<path fill-rule="evenodd" clip-rule="evenodd" d="M11 2C8.5556 2 8.2496 2.0102 7.2896 2.054C6.3314 2.0978 5.6768 2.2502 5.1044 2.4728C4.5044 2.6984 3.9602 3.0524 3.5102 3.5108C3.05253 3.96028 2.69831 4.5041 2.4722 5.1044C2.2508 5.6768 2.0978 6.332 2.054 7.2902C2.0108 8.2496 2 8.555 2 11C2 13.445 2.0102 13.7504 2.054 14.7104C2.0978 15.6686 2.2502 16.3232 2.4728 16.8956C2.6984 17.4956 3.0524 18.0398 3.5108 18.4898C3.96029 18.9475 4.50411 19.3017 5.1044 19.5278C5.6768 19.7498 6.3314 19.9022 7.2896 19.946C8.2496 19.9898 8.5556 20 11 20C13.4444 20 13.7504 19.9898 14.7104 19.946C15.6686 19.9022 16.3232 19.7498 16.8956 19.5272C17.4956 19.3016 18.0398 18.9476 18.4898 18.4892C18.9475 18.0397 19.3017 17.4959 19.5278 16.8956C19.7498 16.3232 19.9022 15.6686 19.946 14.7104C19.9898 13.7504 20 13.4444 20 11C20 8.5556 19.9898 8.2496 19.946 7.2896C19.9022 6.3314 19.7498 5.6768 19.5272 5.1044C19.3012 4.50384 18.947 3.95979 18.4892 3.5102C18.0397 3.05253 17.4959 2.69831 16.8956 2.4722C16.3232 2.2508 15.668 2.0978 14.7098 2.054C13.7504 2.0108 13.445 2 11 2ZM11 3.6218C13.403 3.6218 13.688 3.6308 14.6372 3.674C15.5144 3.7142 15.9908 3.86 16.3082 3.9842C16.7282 4.1468 17.0282 4.3424 17.3432 4.6568C17.6582 4.9718 17.8532 5.2718 18.0158 5.6918C18.1394 6.0092 18.2858 6.4856 18.326 7.3628C18.3692 8.312 18.3782 8.597 18.3782 11C18.3782 13.403 18.3692 13.688 18.326 14.6372C18.2858 15.5144 18.14 15.9908 18.0158 16.3082C17.8718 16.6991 17.6419 17.0528 17.3432 17.3432C17.0528 17.642 16.6992 17.8718 16.3082 18.0158C15.9908 18.1394 15.5144 18.2858 14.6372 18.326C13.688 18.3692 13.4036 18.3782 11 18.3782C8.5964 18.3782 8.312 18.3692 7.3628 18.326C6.4856 18.2858 6.0092 18.14 5.6918 18.0158C5.30087 17.8718 4.9472 17.6419 4.6568 17.3432C4.35811 17.0528 4.12828 16.6991 3.9842 16.3082C3.8606 15.9908 3.7142 15.5144 3.674 14.6372C3.6308 13.688 3.6218 13.403 3.6218 11C3.6218 8.597 3.6308 8.312 3.674 7.3628C3.7142 6.4856 3.86 6.0092 3.9842 5.6918C4.1468 5.2718 4.3424 4.9718 4.6568 4.6568C4.94716 4.35803 5.30085 4.12819 5.6918 3.9842C6.0092 3.8606 6.4856 3.7142 7.3628 3.674C8.312 3.6308 8.597 3.6218 11 3.6218V3.6218Z" fill="white"/>
<path fill-rule="evenodd" clip-rule="evenodd" d="M10.999 14.0028C10.6047 14.0028 10.2142 13.9251 9.84985 13.7742C9.48551 13.6233 9.15446 13.4021 8.8756 13.1232C8.59675 12.8444 8.37555 12.5133 8.22464 12.149C8.07372 11.7846 7.99605 11.3941 7.99605 10.9998C7.99605 10.6054 8.07372 10.2149 8.22464 9.85059C8.37555 9.48625 8.59675 9.1552 8.8756 8.87635C9.15446 8.59749 9.48551 8.37629 9.84985 8.22538C10.2142 8.07446 10.6047 7.99679 10.999 7.99679C11.7955 7.99679 12.5593 8.31318 13.1225 8.87635C13.6857 9.43952 14.002 10.2033 14.002 10.9998C14.002 11.7962 13.6857 12.5601 13.1225 13.1232C12.5593 13.6864 11.7955 14.0028 10.999 14.0028V14.0028ZM10.999 6.37379C9.77215 6.37379 8.59551 6.86117 7.72797 7.72871C6.86043 8.59626 6.37305 9.7729 6.37305 10.9998C6.37305 12.2267 6.86043 13.4033 7.72797 14.2709C8.59551 15.1384 9.77215 15.6258 10.999 15.6258C12.2259 15.6258 13.4026 15.1384 14.2701 14.2709C15.1377 13.4033 15.625 12.2267 15.625 10.9998C15.625 9.7729 15.1377 8.59626 14.2701 7.72871C13.4026 6.86117 12.2259 6.37379 10.999 6.37379V6.37379ZM16.9708 6.28979C16.9708 6.5798 16.8556 6.85794 16.6506 7.06301C16.4455 7.26808 16.1674 7.38329 15.8773 7.38329C15.5873 7.38329 15.3092 7.26808 15.1041 7.06301C14.8991 6.85794 14.7838 6.5798 14.7838 6.28979C14.7838 5.99977 14.8991 5.72164 15.1041 5.51657C15.3092 5.3115 15.5873 5.19629 15.8773 5.19629C16.1674 5.19629 16.4455 5.3115 16.6506 5.51657C16.8556 5.72164 16.9708 5.99977 16.9708 6.28979" fill="white"/>
</svg>
