<svg width="22" height="22" viewBox="0 0 22 22" fill="none" xmlns="http://www.w3.org/2000/svg">
<path d="M20 3.32353V18.6765C20 19.0275 19.8606 19.3641 19.6123 19.6123C19.3641 19.8606 19.0275 20 18.6765 20H3.32353C2.97251 20 2.63586 19.8606 2.38765 19.6123C2.13944 19.3641 2 19.0275 2 18.6765V3.32353C2 2.97251 2.13944 2.63586 2.38765 2.38765C2.63586 2.13944 2.97251 2 3.32353 2H18.6765C19.0275 2 19.3641 2.13944 19.6123 2.38765C19.8606 2.63586 20 2.97251 20 3.32353V3.32353ZM7.29412 8.88235H4.64706V17.3529H7.29412V8.88235ZM7.53235 5.97059C7.53375 5.77036 7.49569 5.57182 7.42035 5.3863C7.34502 5.20078 7.23387 5.03191 7.09328 4.88935C6.95268 4.74678 6.78537 4.6333 6.60091 4.5554C6.41646 4.47749 6.21846 4.43668 6.01824 4.43529H5.97059C5.5634 4.43529 5.1729 4.59705 4.88497 4.88497C4.59705 5.1729 4.43529 5.5634 4.43529 5.97059C4.43529 6.37777 4.59705 6.76828 4.88497 7.05621C5.1729 7.34413 5.5634 7.50588 5.97059 7.50588V7.50588C6.17083 7.51081 6.37008 7.47623 6.55696 7.40413C6.74383 7.33202 6.91467 7.2238 7.0597 7.08565C7.20474 6.94749 7.32113 6.78212 7.40223 6.59897C7.48333 6.41582 7.52755 6.21848 7.53235 6.01824V5.97059ZM17.3529 12.2071C17.3529 9.66059 15.7329 8.67059 14.1235 8.67059C13.5966 8.6442 13.0719 8.75644 12.6019 8.9961C12.1318 9.23577 11.7328 9.59448 11.4447 10.0365H11.3706V8.88235H8.88235V17.3529H11.5294V12.8476C11.4911 12.3862 11.6365 11.9283 11.9339 11.5735C12.2313 11.2186 12.6567 10.9954 13.1176 10.9524H13.2182C14.06 10.9524 14.6847 11.4818 14.6847 12.8159V17.3529H17.3318L17.3529 12.2071Z" fill="white"/>
</svg>
