<svg width="92" height="92" viewBox="0 0 92 92" fill="none" xmlns="http://www.w3.org/2000/svg">
<path d="M48.5204 3.14196C48.5204 1.41446 47.1175 0 45.39 0C43.6509 0 42.248 1.40287 42.248 3.14196V25.7386C42.248 27.4776 43.6509 28.8805 45.39 28.8805C47.1175 28.8805 48.5204 27.4776 48.5204 25.7386V3.14196Z" fill="#CCEF92"/>
<path d="M59.9057 32.5683C60.184 32.5683 60.4506 32.464 60.6477 32.2669L76.6242 16.2904C77.03 15.8847 77.03 15.2238 76.6242 14.818C76.2184 14.4122 75.5576 14.4122 75.1402 14.818L59.1637 30.7829C58.7579 31.1887 58.7579 31.8495 59.1637 32.2669C59.3724 32.464 59.6391 32.5683 59.9057 32.5683Z" fill="#CCEF92"/>
<path d="M90.0726 45.8777C90.0726 45.1125 89.4581 44.498 88.6929 44.498H66.0848C65.3312 44.498 64.7051 45.1125 64.7051 45.8777C64.7051 46.6429 65.3196 47.269 66.0848 47.269H88.6814C89.4581 47.269 90.0726 46.6429 90.0726 45.8777Z" fill="#CCEF92"/>
<path d="M33.2752 29.5644L17.2988 13.588C16.2205 12.5097 14.4698 12.5097 13.3916 13.588C12.3018 14.6662 12.3018 16.4169 13.3916 17.4951L29.368 33.4716C29.913 34.0049 30.6202 34.2832 31.3274 34.2832C32.0347 34.2832 32.7419 34.0049 33.2868 33.4716C34.3418 32.3933 34.3418 30.6427 33.2752 29.5644Z" fill="#CCEF92"/>
<path d="M27.6631 45.8771C27.6631 44.4742 26.5269 43.3496 25.1241 43.3496H2.53907C1.13621 43.3496 0 44.4858 0 45.8771C0 47.28 1.13621 48.4162 2.53907 48.4162H25.1241C26.5269 48.4162 27.6631 47.28 27.6631 45.8771Z" fill="#CCEF92"/>
<path d="M59.0946 61.6343L75.071 77.6107C75.4073 77.9469 75.8478 78.1092 76.3 78.1092C76.7406 78.1092 77.1811 77.9353 77.5289 77.6107C78.2014 76.9267 78.2014 75.8368 77.5289 75.1644L61.5293 59.1879C60.8569 58.5155 59.767 58.5155 59.083 59.1879C58.4105 59.8604 58.4105 60.9618 59.0946 61.6343Z" fill="#CCEF92"/>
<path d="M45.9464 64.5195C44.8102 64.5195 43.8711 65.447 43.8711 66.5948V89.1914C43.8711 90.3392 44.7986 91.2668 45.9464 91.2668C47.0942 91.2668 48.0217 90.3392 48.0217 89.1914V66.5948C48.0217 65.447 47.0942 64.5195 45.9464 64.5195Z" fill="#CCEF92"/>
<path d="M15.444 79.0939C16.0353 79.0939 16.6266 78.862 17.0787 78.4099L33.0436 62.445C33.9479 61.5407 33.9479 60.0799 33.0436 59.1871C32.1393 58.2944 30.69 58.2944 29.7857 59.1871L13.8208 75.1636C12.9165 76.0679 12.9165 77.5287 13.8208 78.4215C14.2614 78.862 14.8527 79.0939 15.444 79.0939Z" fill="#CCEF92"/>
</svg>
