<svg width="53" height="48" viewBox="0 0 53 48" fill="none" xmlns="http://www.w3.org/2000/svg">
<path d="M52.2797 14.7725C52.2872 14.5954 52.2932 14.4183 52.2932 14.2397C52.2932 7.07274 46.2489 0.860352 38.7923 0.860352C33.3409 0.860352 28.6474 4.36953 26.5161 8.84083C24.3848 4.36953 19.6898 0.860352 14.2384 0.860352C6.78173 0.860352 0.737494 7.07274 0.737494 14.2397C0.737494 14.4183 0.73747 14.5954 0.750979 14.7725C0.750979 14.7725 -0.0114539 23.2859 9.46397 32.5812C13.7717 36.8964 18.5897 40.9984 26.5191 47.4405C34.4486 40.9954 39.2666 36.8934 43.5742 32.5812C53.0422 23.2859 52.2797 14.7725 52.2797 14.7725Z" fill="#FA543C"/>
</svg>
