<svg width="18" height="18" viewBox="0 0 18 18" fill="none" xmlns="http://www.w3.org/2000/svg">
<path d="M13.5 9C13.5 7.235 12.48 5.71 11 4.975V7.185L13.455 9.64C13.485 9.43 13.5 9.215 13.5 9ZM16 9C16 9.94 15.795 10.825 15.46 11.64L16.975 13.155C17.625 11.91 18 10.5 18 9C18 4.72 15.005 1.14 11 0.23V2.295C13.89 3.155 16 5.83 16 9ZM1.275 0L0 1.275L4.725 6H0V12H4L9 17V10.275L13.255 14.53C12.585 15.045 11.83 15.46 11 15.71V17.775C12.3517 17.4647 13.6131 16.8451 14.685 15.965L16.725 18L18 16.725L9 7.725L1.275 0ZM9 1L6.91 3.09L9 5.18V1Z" fill="black"/>
</svg>
