<svg width="164" height="163" viewBox="0 0 164 163" fill="none" xmlns="http://www.w3.org/2000/svg">
<mask id="mask0_252_419" style="mask-type:alpha" maskUnits="userSpaceOnUse" x="0" y="0" width="164" height="163">
<path d="M81.6741 62.0009L82.8071 68.8798C83.8205 75.0323 88.6427 79.8544 94.7952 80.8678L101.674 82.0009L94.7952 83.1339C88.6427 84.1474 83.8205 88.9695 82.8071 95.122L81.6741 102.001L80.541 95.122C79.5276 88.9695 74.7054 84.1474 68.553 83.1339L61.6741 82.0009L68.553 80.8678C74.7054 79.8544 79.5276 75.0323 80.541 68.8798L81.6741 62.0009Z" fill="#171612"/>
<path d="M130.907 30.5933L129.339 29.2761L130.347 26.6335L127.088 23.8961L124.647 25.3346L123.115 24.0483L132.91 18.4846L134.711 19.9974L130.907 30.5933ZM128.446 23.0514L130.945 25.1507L132.763 20.4506L128.446 23.0514Z" fill="#171612"/>
<path d="M142.906 28.1156C143.423 28.6976 143.77 29.2885 143.946 29.8881C144.122 30.4877 144.125 31.0696 143.956 31.6337C143.786 32.1978 143.439 32.7135 142.912 33.181C142.386 33.6484 141.832 33.9329 141.252 34.0346C140.672 34.1362 140.094 34.0643 139.519 33.8188C138.944 33.5732 138.398 33.1595 137.881 32.5774L136.361 30.8672L133.489 33.4168L132.182 31.9457L140.078 24.9343L142.906 28.1156ZM138.864 31.2759C139.339 31.8101 139.802 32.1056 140.252 32.1625C140.702 32.2193 141.142 32.0565 141.573 31.674C142.004 31.2916 142.217 30.8737 142.214 30.4202C142.21 29.9668 141.971 29.4729 141.497 28.9387L140.189 27.4677L137.557 29.8048L138.864 31.2759Z" fill="#171612"/>
<path d="M149.455 36.6856C149.891 37.3309 150.156 37.9623 150.252 38.5799C150.347 39.1974 150.274 39.7746 150.031 40.3113C149.789 40.848 149.376 41.3132 148.792 41.7069C148.209 42.1006 147.622 42.3095 147.034 42.3335C146.445 42.3576 145.882 42.21 145.344 41.8906C144.807 41.5713 144.32 41.0891 143.884 40.4438L142.603 38.5479L139.42 40.6955L138.318 39.0647L147.072 33.159L149.455 36.6856ZM145.031 39.2839C145.431 39.8761 145.851 40.2301 146.289 40.3459C146.728 40.4617 147.186 40.3585 147.664 40.0364C148.141 39.7143 148.408 39.3282 148.465 38.8784C148.521 38.4285 148.349 37.9075 147.949 37.3153L146.848 35.6845L143.93 37.6531L145.031 39.2839Z" fill="#171612"/>
<path d="M145.921 48.2195L148.423 53.3183L146.958 54.0362L143.588 47.1707L153.071 42.5255L153.938 44.2921L145.921 48.2195Z" fill="#171612"/>
<path d="M158.211 54.1371L148.314 57.818L147.626 55.9741L157.524 52.2931L158.211 54.1371Z" fill="#171612"/>
<path d="M154.21 68.2456C153.517 68.2001 152.9 68.0252 152.361 67.7209C151.822 67.4165 151.371 67.0021 151.007 66.4777C150.647 65.9635 150.38 65.3652 150.207 64.6826C149.956 63.6898 149.95 62.773 150.189 61.932C150.43 61.1014 150.893 60.3855 151.577 59.7843C152.264 59.1935 153.156 58.7602 154.252 58.4843C155.349 58.2084 156.34 58.168 157.225 58.3632C158.113 58.5687 158.861 58.9801 159.468 59.5973C160.077 60.2248 160.506 61.0298 160.755 62.0123C160.93 62.7052 160.988 63.3504 160.93 63.9479C160.885 64.5532 160.719 65.0954 160.433 65.5743C160.15 66.0636 159.743 66.4794 159.214 66.8216L158.026 65.2561C158.589 64.9164 158.957 64.5214 159.129 64.0711C159.315 63.6285 159.331 63.1073 159.18 62.5075C159.028 61.9077 158.752 61.4219 158.35 61.05C157.958 60.6756 157.457 60.4333 156.846 60.323C156.235 60.2128 155.536 60.2566 154.75 60.4544C153.974 60.6496 153.336 60.9312 152.835 61.2993C152.346 61.6751 152.012 62.1166 151.833 62.6239C151.666 63.1388 151.662 63.7117 151.821 64.3426C151.97 64.932 152.255 65.4049 152.675 65.7612C153.095 66.1174 153.648 66.3028 154.334 66.3172L154.21 68.2456Z" fill="#171612"/>
<path d="M152.57 79.5112L152.368 77.4732L154.936 76.2896L154.518 72.0543L151.766 71.3748L151.569 69.3845L162.464 72.2579L162.696 74.5986L152.57 79.5112ZM156.08 72.3999L156.4 75.6481L160.985 73.5601L156.08 72.3999Z" fill="#171612"/>
<path d="M162.75 89.6226L161.119 89.5555L161.262 85.9904L152.342 85.6236L152.421 83.6572L161.341 84.024L161.485 80.4589L163.115 80.5259L162.75 89.6226Z" fill="#171612"/>
<path d="M162.03 94.2891L151.58 92.7728L151.861 90.825L162.311 92.3412L162.03 94.2891Z" fill="#171612"/>
<path d="M160.49 102.398C160.223 103.408 159.782 104.218 159.168 104.828C158.554 105.437 157.804 105.834 156.917 106.018C156.027 106.212 155.035 106.164 153.942 105.874C152.85 105.584 151.965 105.134 151.288 104.524C150.608 103.924 150.152 103.208 149.92 102.374C149.689 101.54 149.707 100.617 149.974 99.6067C150.236 98.6168 150.675 97.8119 151.292 97.1919C151.905 96.5823 152.657 96.1804 153.547 95.9862C154.434 95.8023 155.424 95.8553 156.517 96.1454C157.61 96.4354 158.497 96.8803 159.176 97.4801C159.853 98.0902 160.308 98.8122 160.54 99.6462C160.768 100.491 160.752 101.408 160.49 102.398ZM158.897 101.975C159.055 101.377 159.047 100.823 158.873 100.313C158.71 99.8062 158.386 99.3616 157.902 98.9795C157.416 98.6076 156.781 98.3177 155.997 98.1097C155.214 97.9018 154.519 97.8387 153.912 97.9206C153.303 98.0127 152.797 98.2371 152.394 98.5935C152.001 98.9528 151.725 99.4314 151.567 100.029C151.403 100.648 151.404 101.206 151.571 101.702C151.745 102.212 152.075 102.653 152.562 103.025C153.048 103.397 153.683 103.687 154.466 103.895C155.25 104.103 155.945 104.166 156.551 104.084C157.158 104.002 157.658 103.781 158.051 103.422C158.451 103.076 158.733 102.594 158.897 101.975Z" fill="#171612"/>
<path d="M154.153 118.79L144.519 114.466L145.448 112.392L152.907 111.479L154.941 111.322L154.948 111.307L153.316 110.645L147.419 107.998L148.145 106.377L157.779 110.702L156.85 112.775L149.412 113.681L147.349 113.824L147.342 113.839L148.989 114.508L154.886 117.155L154.153 118.79Z" fill="#171612"/>
<path d="M132.844 130.709L142.244 136.42L140.71 137.825L133.059 132.768L137.453 140.807L136.013 142.125L128.352 137.056L132.744 145.118L131.269 146.469L126.4 136.609L128.064 135.085L133.319 138.474L135.349 139.956L135.373 139.934L134.086 137.772L131.156 132.254L132.844 130.709Z" fill="#171612"/>
<path d="M122.618 139.472L128.198 148.438L121.579 152.55L120.717 151.165L125.664 148.091L124.176 145.7L120.303 148.107L119.474 146.775L123.347 144.369L121.809 141.897L116.672 145.088L115.809 143.703L122.618 139.472Z" fill="#171612"/>
<path d="M113.603 144.868L117.796 154.56L113.756 156.303C112.591 156.806 111.632 156.941 110.881 156.708C110.133 156.485 109.579 155.957 109.219 155.125C108.995 154.606 108.947 154.08 109.077 153.548C109.212 153.025 109.549 152.583 110.09 152.222L110.084 152.207C109.381 152.383 108.764 152.341 108.234 152.082C107.703 151.823 107.318 151.415 107.076 150.857C106.716 150.025 106.736 149.238 107.135 148.496C107.539 147.764 108.319 147.149 109.475 146.65L113.603 144.868ZM112.456 147.053L110.135 148.055C109.557 148.304 109.177 148.608 108.995 148.965C108.803 149.327 108.8 149.723 108.986 150.154C109.177 150.595 109.47 150.869 109.865 150.977C110.251 151.09 110.733 151.021 111.311 150.772L113.632 149.77L112.456 147.053ZM114.254 151.209L112.183 152.103C111.027 152.602 110.642 153.297 111.028 154.187C111.409 155.068 112.177 155.26 113.333 154.761L115.404 153.867L114.254 151.209Z" fill="#171612"/>
<path d="M103.079 160.172C102.152 160.42 101.304 160.47 100.535 160.322C99.7562 160.177 99.0427 159.843 98.3946 159.321L99.2223 157.775C99.779 158.244 100.338 158.537 100.899 158.652C101.463 158.777 102.074 158.752 102.734 158.575C103.208 158.449 103.578 158.284 103.843 158.08C104.109 157.877 104.286 157.653 104.375 157.408C104.457 157.177 104.463 156.932 104.394 156.674C104.316 156.386 104.141 156.163 103.866 156.004C103.592 155.845 103.153 155.775 102.55 155.792L100.436 155.877C99.3785 155.928 98.579 155.788 98.0377 155.458C97.4963 155.128 97.1317 154.612 96.9438 153.912C96.7697 153.263 96.7943 152.654 97.0175 152.087C97.2332 151.533 97.6157 151.044 98.1649 150.621C98.7066 150.211 99.3845 149.898 100.199 149.68C100.92 149.488 101.598 149.4 102.232 149.419C102.859 149.45 103.441 149.559 103.977 149.747C104.503 149.938 104.968 150.189 105.372 150.501L104.53 152.117C104.219 151.825 103.858 151.59 103.446 151.413C103.024 151.239 102.576 151.132 102.102 151.093C101.62 151.067 101.116 151.124 100.591 151.265C100.147 151.383 99.7799 151.537 99.4881 151.725C99.1963 151.913 98.9942 152.127 98.8818 152.367C98.7722 152.617 98.7561 152.887 98.8334 153.175C98.9081 153.453 99.0709 153.669 99.322 153.823C99.5627 153.979 99.9573 154.051 100.506 154.037L102.798 153.938C103.432 153.912 103.992 153.961 104.478 154.085C104.956 154.222 105.352 154.442 105.665 154.745C105.968 155.05 106.183 155.44 106.31 155.914C106.471 156.512 106.455 157.09 106.262 157.649C106.06 158.211 105.692 158.713 105.158 159.153C104.617 159.607 103.924 159.947 103.079 160.172Z" fill="#171612"/>
<path d="M93.1222 162.054L91.5129 151.617L93.4582 151.319L95.0675 161.756L93.1222 162.054Z" fill="#171612"/>
<path d="M81.3415 162.97L81.258 161.34L84.8216 161.161L84.365 152.244L86.3305 152.146L86.7871 161.062L90.3506 160.883L90.4341 162.513L81.3415 162.97Z" fill="#171612"/>
<path d="M79.4486 152.366L78.5217 162.885L70.7604 162.194L70.9036 160.569L76.7047 161.085L76.9519 158.28L72.4098 157.876L72.5475 156.314L77.0895 156.718L77.3451 153.817L71.3209 153.281L71.4642 151.655L79.4486 152.366Z" fill="#171612"/>
<path d="M43.0949 140.975L44.8824 141.975L44.3886 144.76L48.1032 146.838L50.2308 144.966L51.9763 145.942L43.4027 153.247L41.35 152.099L43.0949 140.975ZM46.9287 147.922L44.0799 146.329L43.178 151.288L46.9287 147.922Z" fill="#171612"/>
<path d="M31.6251 145.549C31.0082 145.074 30.5572 144.559 30.272 144.002C29.9869 143.446 29.8747 142.875 29.9355 142.289C29.9964 141.703 30.2416 141.131 30.6711 140.574C31.1007 140.016 31.591 139.633 32.142 139.424C32.6929 139.216 33.2737 139.179 33.8843 139.312C34.495 139.446 35.1087 139.75 35.7256 140.225L37.5383 141.622L39.8814 138.579L41.4406 139.78L34.997 148.146L31.6251 145.549ZM35.0028 141.688C34.4366 141.252 33.9272 141.048 33.4745 141.077C33.0219 141.105 32.6198 141.347 32.2683 141.804C31.9169 142.26 31.7852 142.711 31.8734 143.156C31.9616 143.6 32.2888 144.041 32.855 144.477L34.4141 145.678L36.562 142.889L35.0028 141.688Z" fill="#171612"/>
<path d="M23.4353 138.212C22.8877 137.659 22.5099 137.087 22.302 136.498C22.094 135.908 22.0596 135.328 22.1985 134.755C22.3375 134.183 22.6573 133.649 23.158 133.154C23.6586 132.659 24.196 132.346 24.77 132.213C25.3441 132.08 25.9248 132.121 26.512 132.336C27.0992 132.55 27.6666 132.934 28.2142 133.488L29.8233 135.114L32.5541 132.415L33.9382 133.814L26.4285 141.238L23.4353 138.212ZM27.3014 134.84C26.7988 134.332 26.3213 134.062 25.8689 134.029C25.4164 133.996 24.9854 134.182 24.5758 134.587C24.1661 134.992 23.9752 135.421 24.0028 135.874C24.0305 136.326 24.2956 136.807 24.7982 137.315L26.1822 138.714L28.6855 136.239L27.3014 134.84Z" fill="#171612"/>
<path d="M24.9925 126.52L21.5692 121.988L22.8721 121.005L27.4814 127.108L19.0512 133.467L17.8651 131.897L24.9925 126.52Z" fill="#171612"/>
<path d="M11.8071 123.059L20.8386 117.586L21.8597 119.269L12.8281 124.741L11.8071 123.059Z" fill="#171612"/>
<path d="M12.9891 108.265C13.6791 108.18 14.3171 108.238 14.9032 108.437C15.4892 108.636 16.0096 108.959 16.4641 109.407C16.9142 109.845 17.2873 110.384 17.5835 111.022C18.0142 111.951 18.1904 112.851 18.1121 113.722C18.0292 114.583 17.7074 115.372 17.1467 116.09C16.5814 116.798 15.7857 117.39 14.7595 117.864C13.7333 118.339 12.7671 118.563 11.8609 118.535C10.9501 118.498 10.1393 118.233 9.42826 117.739C8.71277 117.236 8.1419 116.524 7.71564 115.605C7.41501 114.957 7.23777 114.333 7.1839 113.736C7.11586 113.132 7.17793 112.569 7.37011 112.045C7.5578 111.512 7.88009 111.028 8.33697 110.593L9.79453 111.911C9.30412 112.349 9.01607 112.806 8.93038 113.28C8.83052 113.749 8.91072 114.265 9.17096 114.826C9.4312 115.387 9.79332 115.813 10.2573 116.104C10.7116 116.399 11.2492 116.544 11.87 116.539C12.4907 116.534 13.169 116.361 13.9048 116.021C14.6308 115.685 15.2059 115.29 15.63 114.835C16.0398 114.375 16.2861 113.879 16.3687 113.347C16.4372 112.81 16.3345 112.247 16.0608 111.656C15.8051 111.105 15.4378 110.693 14.9589 110.421C14.48 110.149 13.9023 110.069 13.2258 110.182L12.9891 108.265Z" fill="#171612"/>
<path d="M12.5583 97.1405L13.1391 99.1044L10.8393 100.75L12.0464 104.831L14.8771 104.981L15.4444 106.899L4.20328 106.125L3.5362 103.869L12.5583 97.1405ZM10.4477 104.785L9.52196 101.655L5.41129 104.568L10.4477 104.785Z" fill="#171612"/>
<path d="M0.631988 88.9972L2.24693 88.7618L2.76504 92.292L11.5997 91.0046L11.8855 92.9517L3.05081 94.2392L3.56892 97.7693L1.95398 98.0047L0.631988 88.9972Z" fill="#171612"/>
<path d="M0.437801 84.1794L10.9881 83.7267L11.0744 85.6928L0.524124 86.1455L0.437801 84.1794Z" fill="#171612"/>
<path d="M0.407307 76.1142C0.479904 75.0713 0.760256 74.1929 1.24836 73.4788C1.73647 72.7647 2.39892 72.234 3.23573 71.8867C4.07328 71.5287 5.05598 71.3895 6.18385 71.4691C7.31171 71.5487 8.26553 71.8244 9.04529 72.2965C9.8258 72.7579 10.4083 73.3764 10.7926 74.152C11.177 74.9277 11.3329 75.8369 11.2603 76.8797C11.1892 77.9012 10.9092 78.7744 10.4204 79.4991C9.93229 80.2132 9.26947 80.7492 8.43192 81.1072C7.59511 81.4545 6.61277 81.5884 5.48491 81.5088C4.35705 81.4292 3.40286 81.1588 2.62235 80.6974C1.84259 80.2253 1.26051 79.6015 0.876112 78.8259C0.492459 78.0396 0.33619 77.1357 0.407307 76.1142ZM2.05122 76.2301C2.00826 76.8473 2.12018 77.3898 2.38699 77.8578C2.64317 78.325 3.0447 78.7008 3.59159 78.9853C4.13923 79.2592 4.81737 79.4247 5.62603 79.4817C6.43469 79.5387 7.12913 79.4701 7.70936 79.2758C8.29033 79.0708 8.74534 78.7554 9.07438 78.3295C9.39278 77.9028 9.57346 77.3809 9.61643 76.7637C9.66087 76.1253 9.55464 75.5778 9.29773 75.1212C9.03091 74.6533 8.62369 74.2824 8.07605 74.0085C7.52842 73.7347 6.85027 73.5692 6.04162 73.5122C5.23296 73.4551 4.53851 73.5238 3.95829 73.7181C3.37806 73.9124 2.92874 74.2229 2.61034 74.6495C2.28204 75.0648 2.09567 75.5917 2.05122 76.2301Z" fill="#171612"/>
<path d="M3.50857 58.7923L13.7826 61.233L13.2591 63.4439L6.10541 65.7407L4.13704 66.2762L4.13335 66.2918L5.86045 66.6363L12.1494 68.1303L11.7402 69.8585L1.46612 67.4178L1.98964 65.207L9.12411 62.922L11.1236 62.3939L11.1273 62.3783L9.38464 62.0301L3.09566 60.5361L3.50857 58.7923Z" fill="#171612"/>
<path d="M14.4124 35.8744C15.3595 34.5193 16.4717 33.7285 17.7491 33.5021C19.0177 33.2696 20.3471 33.6391 21.7372 34.6107C23.1186 35.5762 23.9225 36.6976 24.1489 37.975C24.3753 39.2525 24.015 40.5688 23.0679 41.9239L20.8315 45.1239L12.176 39.0744L14.4124 35.8744ZM21.7198 41.0598C22.3308 40.1855 22.5298 39.3421 22.3169 38.5295C22.11 37.7083 21.5258 36.9615 20.564 36.2894C19.6023 35.6172 18.7003 35.3251 17.858 35.4131C17.0218 35.4924 16.2982 35.9692 15.6872 36.8435L14.6148 38.3779L20.6474 42.5942L21.7198 41.0598Z" fill="#171612"/>
<path d="M33.9939 29.0857L32.571 30.5587L30.004 29.3702L27.047 32.4313L28.3135 34.9661L26.924 36.4046L22.0503 26.2506L23.6844 24.5589L33.9939 29.0857ZM26.2981 31.0188L28.5658 28.6712L24.0018 26.5333L26.2981 31.0188Z" fill="#171612"/>
<path d="M31.9784 16.9919C32.7426 16.4108 33.5083 16.0431 34.2754 15.8886C35.051 15.7276 35.8377 15.766 36.6353 16.0037L36.4553 17.7485C35.7624 17.525 35.1346 17.4663 34.572 17.5725C34.0029 17.6702 33.4466 17.9257 32.9032 18.3389C32.5126 18.6358 32.233 18.9289 32.0643 19.2179C31.8955 19.507 31.8164 19.7816 31.8267 20.0417C31.8391 20.2869 31.926 20.5156 32.0875 20.7278C32.2684 20.9655 32.5159 21.1056 32.8299 21.1483C33.1439 21.1909 33.5763 21.0899 34.1273 20.8451L36.0514 19.9651C37.0107 19.5171 37.8033 19.3432 38.4293 19.4435C39.0552 19.5438 39.5879 19.8825 40.0272 20.4596C40.4342 20.9943 40.642 21.5666 40.6505 22.1766C40.661 22.7715 40.4923 23.3688 40.1444 23.9684C39.7985 24.553 39.2901 25.1003 38.6193 25.6103C38.0249 26.0622 37.4308 26.4 36.837 26.6237C36.2452 26.8325 35.6656 26.9516 35.0982 26.981C34.5393 27.004 34.0139 26.9479 33.5222 26.8126L33.6888 24.9975C34.0868 25.1505 34.5099 25.2308 34.9581 25.2384C35.4147 25.2396 35.8698 25.1683 36.3234 25.0244C36.7789 24.8656 37.2232 24.6216 37.6563 24.2924C38.0214 24.0147 38.3033 23.7334 38.5019 23.4484C38.7005 23.1634 38.8064 22.8886 38.8195 22.6241C38.8261 22.351 38.739 22.0957 38.5581 21.858C38.3836 21.6289 38.1511 21.4907 37.8606 21.4437C37.5785 21.3901 37.1865 21.4738 36.6844 21.6948L34.6008 22.6559C34.0244 22.92 33.4878 23.0868 32.991 23.1563C32.4963 23.2108 32.0468 23.1573 31.6423 22.9959C31.2464 22.8279 30.8998 22.5487 30.6026 22.1583C30.2279 21.6661 30.0235 21.1246 29.9896 20.5341C29.9641 19.9371 30.1146 19.3335 30.4411 18.7235C30.7697 18.0985 31.2821 17.5213 31.9784 16.9919Z" fill="#171612"/>
<path d="M46.3516 8.22396L51.3871 17.506L49.6565 18.4431L44.621 9.16103L46.3516 8.22396ZM40.2875 11.5075L45.323 20.7896L43.5924 21.7267L38.5569 12.4446L40.2875 11.5075ZM47.6055 12.5486L48.3837 13.9831L42.2915 17.2819L41.5133 15.8474L47.6055 12.5486Z" fill="#171612"/>
<path d="M54.1728 16.2553L50.6643 6.29517L54.8157 4.83722C56.0134 4.41663 56.979 4.34882 57.7127 4.63381C58.4429 4.90874 58.9586 5.47378 59.2598 6.32894C59.4476 6.86216 59.4582 7.3898 59.2915 7.91185C59.1213 8.42385 58.7538 8.84121 58.1889 9.16395L58.1942 9.17904C58.9075 9.0529 59.5197 9.13749 60.0309 9.4328C60.542 9.72811 60.8986 10.1625 61.1006 10.736C61.4018 11.5911 61.3273 12.3748 60.877 13.0869C60.4231 13.7889 59.6024 14.3485 58.4149 14.7655L54.1728 16.2553ZM55.4687 14.1552L57.8539 13.3176C58.4477 13.1091 58.848 12.8328 59.0548 12.4889C59.2717 12.1414 59.3021 11.7463 59.1462 11.3036C58.9867 10.8509 58.7135 10.5568 58.3265 10.4214C57.9496 10.2824 57.4642 10.3172 56.8705 10.5257L54.4853 11.3634L55.4687 14.1552ZM53.9643 9.88447L56.0929 9.13695C57.2804 8.71989 57.713 8.05359 57.3904 7.13807C57.0715 6.2326 56.3182 5.9884 55.1307 6.40546L53.0021 7.15299L53.9643 9.88447Z" fill="#171612"/>
<path d="M66.3205 1.58793C67.348 1.39598 68.2692 1.44636 69.0839 1.73907C69.8986 2.03177 70.58 2.53928 71.1281 3.26158C71.6867 3.98192 72.0704 4.8977 72.2792 6.00893C72.4879 7.12016 72.4626 8.11234 72.2034 8.98545C71.9546 9.85662 71.5036 10.5757 70.8504 11.1426C70.1972 11.7095 69.3568 12.0889 68.3292 12.2809C67.3226 12.4689 66.4067 12.4176 65.5815 12.1268C64.7668 11.8341 64.0802 11.3276 63.5216 10.6073C62.9735 9.88495 62.595 8.96819 62.3863 7.85696C62.1775 6.74573 62.1975 5.75453 62.4463 4.88337C62.7056 4.01025 63.1618 3.29023 63.815 2.72331C64.4787 2.15443 65.3139 1.77597 66.3205 1.58793ZM66.6247 3.2076C66.0166 3.32121 65.5199 3.56591 65.1347 3.9417C64.7475 4.30702 64.4855 4.79001 64.3487 5.39067C64.2224 5.98938 64.2341 6.6871 64.3837 7.48383C64.5334 8.28056 64.7758 8.93518 65.1108 9.44771C65.4563 9.95827 65.8769 10.3192 66.3724 10.5305C66.866 10.7312 67.4168 10.7748 68.025 10.6612C68.6541 10.5437 69.157 10.3033 69.5337 9.93991C69.919 9.56411 70.1747 9.07686 70.301 8.47816C70.4273 7.87945 70.4156 7.18173 70.266 6.385C70.1163 5.58827 69.8739 4.93364 69.5389 4.42112C69.2038 3.9086 68.7895 3.55194 68.296 3.35116C67.8109 3.13793 67.2539 3.09008 66.6247 3.2076Z" fill="#171612"/>
<path d="M84.4589 10.7477L82.4118 10.8057L81.4059 8.16108L77.1516 8.28156L76.2862 10.9791L74.287 11.0357L77.8961 0.369312L80.2472 0.302734L84.4589 10.7477ZM77.6028 6.74817L80.8655 6.65577L79.0945 1.93602L77.6028 6.74817Z" fill="#171612"/>
<path d="M91.5163 0.890863C92.6708 1.02802 93.548 1.42225 94.1479 2.07356C94.749 2.71428 94.9927 3.51663 94.879 4.48062C94.7616 5.47639 94.3374 6.20476 93.6064 6.66575C92.8754 7.12673 91.9326 7.28865 90.778 7.15149L90.5901 7.24196L88.2387 6.96262L87.7534 11.0781L85.8309 10.8497L87.0675 0.362377L91.5163 0.890863ZM90.7541 5.71464C91.4109 5.79265 91.9137 5.71812 92.2627 5.49104C92.6117 5.26395 92.8187 4.87499 92.8836 4.32414C92.9486 3.77329 92.8378 3.34657 92.5512 3.04399C92.2659 2.73082 91.7949 2.53522 91.1382 2.45721L88.8027 2.17975L88.4186 5.43718L90.7541 5.71464ZM91.8512 6.24778L94.633 11.8954L92.4246 11.633L90.1062 6.70109L91.8512 6.24778Z" fill="#171612"/>
<path d="M102.875 3.10194C104.466 3.54995 105.58 4.33983 106.215 5.47158C106.853 6.59305 106.942 7.97022 106.484 9.60307C106.028 11.2257 105.235 12.3543 104.104 12.9889C102.973 13.6235 101.612 13.7168 100.02 13.2688L96.2623 12.2109L99.117 2.04408L102.875 3.10194ZM100.391 11.711C101.418 12 102.28 11.9102 102.976 11.4414C103.683 10.9755 104.195 10.1778 104.512 9.04813C104.83 7.91848 104.808 6.97042 104.447 6.20395C104.096 5.44037 103.408 4.91407 102.381 4.62503L100.579 4.11777L98.5892 11.2037L100.391 11.711Z" fill="#171612"/>
</mask>
<g mask="url(#mask0_252_419)">
<rect x="-2" y="-3" width="168" height="168" fill="#171612"/>
</g>
</svg>
